<?xml version="1.0" standalone="no"?>
<!DOCTYPE svg PUBLIC "-//W3C//DTD SVG 20010904//EN"
 "http://www.w3.org/TR/2001/REC-SVG-20010904/DTD/svg10.dtd">
<svg version="1.0" xmlns="http://www.w3.org/2000/svg"
 width="202.000000pt" height="202.000000pt" viewBox="0 0 202.000000 202.000000"
 preserveAspectRatio="xMidYMid meet">
<metadata>
Created by potrace 1.14, written by Peter Selinger 2001-2017
</metadata>
<g transform="translate(0.000000,202.000000) scale(0.100000,-0.100000)"
fill="#000000" stroke="none">
<path d="M838 1995 c-2 -2 -19 -6 -37 -7 -18 -1 -35 -6 -37 -10 -3 -4 -16 -8
-30 -8 -13 0 -24 -5 -24 -11 0 -5 -4 -7 -10 -4 -5 3 -31 -4 -57 -16 -27 -12
-50 -23 -53 -24 -3 0 -24 -11 -46 -23 -36 -18 -51 -35 -59 -64 -2 -5 -3 -9 -5
-10 -8 -11 -6 -38 3 -38 9 0 9 -2 1 -8 -11 -7 -15 -42 -5 -42 4 0 8 -12 9 -27
1 -15 7 -30 13 -34 6 -3 10 -10 10 -15 -2 -18 11 -44 21 -44 5 0 8 -5 6 -12
-2 -6 7 -22 20 -35 12 -13 21 -27 17 -32 -3 -5 4 -12 15 -16 11 -4 18 -11 15
-16 -4 -5 1 -9 10 -9 9 0 13 -5 10 -10 -3 -6 1 -13 9 -16 9 -3 16 -11 16 -18
0 -6 18 -30 40 -54 22 -23 40 -44 40 -47 2 -12 36 -65 43 -65 4 0 7 -5 7 -11
0 -5 9 -30 21 -55 11 -25 23 -67 26 -92 3 -26 9 -49 14 -50 5 -2 7 -7 4 -12
-2 -4 -7 -32 -10 -61 -6 -58 -55 -222 -67 -227 -5 -2 -8 -10 -8 -18 0 -7 -9
-29 -20 -49 -11 -19 -17 -35 -14 -35 4 0 1 -6 -5 -13 -6 -8 -8 -17 -4 -20 3
-4 1 -7 -6 -7 -7 0 -11 -6 -8 -14 3 -8 1 -16 -5 -18 -6 -2 -12 -13 -13 -24 -1
-10 -9 -35 -17 -54 -10 -24 -12 -39 -5 -48 6 -8 6 -12 -2 -12 -13 0 -8 -102 8
-141 5 -15 7 -30 4 -33 -4 -3 -2 -6 3 -6 6 0 16 -16 23 -35 7 -19 17 -35 23
-35 5 0 7 -7 4 -16 -3 -8 -2 -12 4 -9 6 3 10 2 10 -3 0 -16 111 -122 121 -116
5 3 8 0 7 -8 -2 -7 3 -12 10 -10 6 1 12 -2 12 -8 0 -5 14 -8 30 -6 17 2 30 0
30 -3 0 -4 11 -7 25 -7 14 0 25 5 25 11 0 6 3 7 8 0 9 -13 52 -15 52 -3 0 5 4
7 9 3 6 -3 15 4 21 15 6 11 15 18 21 15 5 -4 9 -2 9 3 0 4 9 18 21 31 11 12
18 29 15 37 -3 8 -2 13 2 10 13 -8 33 57 36 118 2 29 6 59 10 65 4 6 2 19 -3
29 -6 11 -7 22 -3 26 3 4 7 24 9 44 6 119 30 214 65 264 11 16 16 28 11 28 -4
0 0 5 10 11 9 5 17 15 17 21 0 11 60 68 73 68 5 0 5 5 2 10 -3 6 -1 10 6 10 6
0 18 8 26 18 9 10 11 11 7 2 -6 -13 -5 -13 12 1 17 14 62 36 74 36 3 1 22 8
43 16 25 11 35 12 30 4 -5 -9 -3 -9 8 -1 9 7 77 10 188 10 133 -1 175 2 178
12 4 8 9 9 17 3 7 -6 17 -5 27 2 13 10 15 30 12 112 -2 55 -4 112 -5 128 0 15
-5 27 -10 27 -5 0 -7 4 -4 8 7 12 -32 12 -62 0 -15 -6 -37 -11 -50 -12 -13 -1
-26 -6 -30 -12 -4 -5 -15 -10 -24 -11 -34 -1 -39 -3 -34 -12 3 -5 -8 -7 -25
-6 -16 1 -27 0 -24 -3 8 -8 -87 -40 -107 -36 -11 2 -18 -4 -19 -14 0 -10 -3
-12 -6 -5 -3 9 -10 10 -24 3 -10 -6 -19 -7 -19 -3 0 4 -5 1 -10 -7 -5 -8 -10
-10 -10 -4 0 6 -7 11 -15 11 -8 0 -15 -3 -15 -6 0 -3 -25 -7 -55 -8 -35 -2
-55 2 -55 8 0 8 -5 7 -15 -1 -11 -9 -15 -9 -15 -1 0 7 -6 11 -12 10 -30 -5
-123 32 -140 56 -4 6 -8 7 -8 3 0 -9 -45 28 -69 56 -9 10 -22 24 -28 31 -7 8
-13 18 -13 24 0 6 -3 11 -7 11 -9 0 -33 49 -33 67 0 7 -5 13 -11 13 -6 0 -9 9
-6 20 3 11 1 20 -3 20 -5 0 -7 11 -5 25 1 14 -1 28 -5 30 -4 3 -8 35 -9 72 -1
41 -6 70 -14 75 -8 5 -8 8 -1 8 8 0 8 15 -1 54 -7 30 -10 57 -7 60 3 3 0 6 -6
6 -7 0 -12 11 -12 25 0 13 -9 40 -20 60 -11 20 -20 42 -20 50 0 8 -7 15 -16
15 -8 0 -13 4 -9 9 3 5 -1 15 -8 23 -8 7 -19 23 -26 35 -12 23 -45 46 -53 38z"/>
<path d="M1193 1993 c-9 -3 -6 -14 10 -36 12 -18 27 -41 34 -52 54 -89 68
-112 80 -123 7 -7 13 -20 13 -28 0 -8 5 -12 10 -9 6 3 10 -1 10 -9 0 -9 5 -16
12 -16 6 0 9 -3 5 -6 -6 -6 12 -28 75 -91 12 -12 25 -20 30 -17 4 3 8 1 8 -4
0 -6 56 -40 80 -47 3 -1 12 -5 20 -8 8 -4 26 -9 40 -11 14 -3 25 -6 25 -7 0
-1 42 -3 93 -4 50 -1 92 2 92 6 0 5 7 6 15 3 9 -4 15 -1 15 7 0 14 -42 81 -70
112 -51 57 -70 76 -70 69 -1 -4 -7 4 -15 18 -7 14 -16 24 -19 22 -4 -1 -22 13
-40 32 -19 19 -37 32 -39 30 -2 -3 -10 2 -17 11 -7 8 -17 15 -23 15 -6 0 -18
6 -26 13 -32 27 -95 61 -86 46 5 -9 1 -8 -12 4 -11 9 -25 17 -31 17 -7 0 -12
5 -12 11 0 5 -4 8 -8 5 -5 -3 -22 2 -37 10 -16 8 -37 13 -47 11 -10 -3 -18 -1
-18 5 0 6 -7 7 -16 4 -9 -4 -13 -2 -8 5 5 8 -3 10 -24 7 -17 -2 -33 -1 -34 2
-2 4 -9 5 -15 3z"/>
<path d="M240 1634 c0 -8 -4 -13 -9 -10 -9 6 -26 -22 -23 -36 1 -5 -5 -8 -14
-8 -8 0 -13 -4 -9 -9 3 -5 -1 -16 -9 -24 -8 -8 -12 -17 -9 -21 4 -3 1 -6 -6
-6 -8 0 -11 -6 -7 -17 4 -10 4 -14 0 -10 -9 8 -44 -47 -44 -68 0 -8 -5 -15
-12 -15 -6 0 -9 -3 -5 -6 3 -4 0 -19 -8 -34 -8 -15 -11 -30 -8 -34 4 -3 1 -6
-5 -6 -7 0 -12 -5 -12 -11 0 -5 6 -7 13 -3 6 4 3 -2 -7 -14 -11 -12 -17 -25
-13 -28 3 -3 1 -18 -5 -33 -6 -14 -12 -48 -14 -74 -2 -27 -9 -57 -14 -67 -13
-25 -13 -33 2 -24 9 5 9 2 -1 -9 -10 -13 -10 -17 -1 -17 9 0 10 -3 1 -13 -11
-14 -8 -47 5 -69 4 -7 3 -8 -4 -4 -7 4 -12 2 -12 -3 0 -6 4 -11 9 -11 5 0 9
-15 10 -32 2 -49 8 -94 14 -105 3 -5 9 -25 12 -43 3 -19 10 -39 15 -46 6 -6 8
-13 5 -16 -3 -3 1 -18 9 -33 8 -16 13 -32 10 -37 -3 -4 -1 -8 5 -8 5 0 12 -13
16 -30 4 -16 10 -30 15 -30 4 0 10 -10 14 -23 3 -12 14 -32 25 -44 11 -11 17
-24 14 -27 -4 -3 1 -6 11 -6 10 0 14 -5 11 -11 -6 -9 26 -49 39 -49 3 0 4 13
2 30 -2 16 0 30 4 30 4 0 7 10 7 23 1 65 4 87 16 99 7 7 12 23 11 35 -1 12 3
20 7 17 5 -3 9 4 9 15 0 12 4 21 9 21 5 0 11 14 15 31 3 17 10 28 16 24 6 -4
9 -3 8 2 -4 13 23 73 33 73 5 0 9 7 9 15 0 8 5 15 12 15 6 0 9 3 5 6 -3 3 5
24 19 46 14 22 23 46 20 54 -3 9 -1 12 4 9 6 -3 10 -3 11 2 0 4 3 17 6 28 8
32 5 163 -3 177 -5 7 -10 22 -11 33 -2 11 -7 29 -12 40 -10 24 -31 86 -34 100
-1 5 -9 16 -17 23 -9 8 -10 11 -2 7 11 -6 11 -3 0 16 -7 13 -17 27 -23 31 -5
4 -7 8 -2 8 4 0 1 14 -8 30 -9 17 -13 30 -10 30 4 0 -1 7 -9 16 -9 8 -14 19
-11 23 2 5 -3 17 -13 27 -9 10 -18 30 -20 44 -2 14 -10 30 -18 36 -7 6 -11 14
-7 17 3 4 -1 7 -10 7 -9 0 -17 -7 -17 -16z"/>
<path d="M1958 774 c-3 -3 -19 -7 -34 -9 -16 -2 -29 -5 -29 -6 0 -1 -11 -3
-25 -4 -14 -2 -36 -6 -50 -10 -39 -10 -54 -13 -63 -14 -5 -1 -6 -5 -3 -10 4
-5 -3 -7 -14 -4 -12 3 -20 0 -20 -6 0 -7 -4 -10 -10 -6 -12 8 -120 -99 -120
-120 0 -8 -4 -15 -8 -15 -22 0 -40 -185 -20 -205 4 -4 4 -13 1 -21 -3 -8 -1
-14 4 -14 4 0 8 -21 8 -46 -1 -31 4 -48 15 -54 12 -8 12 -9 1 -10 -8 0 -12 -3
-9 -6 7 -6 53 22 80 48 10 10 23 18 29 18 5 0 8 4 4 9 -3 5 4 12 15 16 11 3
20 9 20 13 0 4 17 25 38 48 63 68 78 88 62 80 -8 -4 -5 1 7 12 12 11 19 22 16
26 -4 3 -1 6 5 6 6 0 21 21 34 48 13 26 27 50 33 54 5 4 6 10 2 14 -4 4 1 13
11 21 9 8 10 11 3 7 -9 -5 -6 4 7 23 12 17 19 33 16 36 -3 3 2 19 11 36 9 19
11 31 5 31 -6 0 -8 5 -5 10 6 10 -8 14 -17 4z"/>
</g>
</svg>
